# xmcd
#
# Track frame offsets:
#	150
#	18371
#	36091
#	52292
#	73623
#	88958
#	103369
#	124414
#	145355
#	164775
#
# Disc length: 2506 seconds
# Revision: 0
# Processed by: cddbd v1.5.2PL0 Copyright (c) Steve Scherf et al.
# Submitted via: dBpowerAMP V12.0
#
DISCID=a009c80a
DTITLE=Mountain Heart - Blue Skies
DYEAR=2016
DGENRE=Country
TTITLE0=Blue Skies
TTITLE1=Miss Me When I'm Gone
TTITLE2=Maggie's Farm
TTITLE3=No One to Listen
TTITLE4=She'll Come Back to Me
TTITLE5=Addicted
TTITLE6=The Bad Grounds
TTITLE7=Have You Heard About the Old Hometown
TTITLE8=I Can't Get Over You
TTITLE9=Hurting
EXTD=
EXTT0=
EXTT1=
EXTT2=
EXTT3=
EXTT4=
EXTT5=
EXTT6=
EXTT7=
EXTT8=
EXTT9=
PLAYORDER=
